<?xml version="1.0" encoding="utf-8"?>
<!DOCTYPE svg PUBLIC "-//W3C//DTD SVG 1.1//EN" "http://www.w3.org/Graphics/SVG/1.1/DTD/svg11.dtd">
<svg version="1.1" xmlns="http://www.w3.org/2000/svg" xmlns:xlink="http://www.w3.org/1999/xlink" x="0px" y="0px" viewBox="0 0 1000 1000" enable-background="new 0 0 512 512" xml:space="preserve">
<metadata> Svg Vector Icons : http://www.onlinewebfonts.com/icon </metadata>
<g><path d="M978.1,323.5L676.6,21.9c-15.9-15.9-41.6-15.9-57.4,0l-71.6,71.6l0,0l0,0l-76.9,76.9l0,0l0,0L21.9,619.1l14,14l-14.1-14.1c-7.3,7.3-11.9,17.4-11.9,28.6v301.9c0,22.3,18.1,40.4,40.4,40.4h301.9c11.2,0,21.3-4.5,28.6-11.9l0,0l448.7-448.7c0,0,0,0,0,0c0,0,0,0,0,0l76.9-76.9c0,0,0,0,0,0c0,0,0,0,0,0l71.6-71.6C994,365,994,339.3,978.1,323.5z M816.8,490.9L509.1,183.3l51.3-51.3l307.7,307.7L816.8,490.9z M150.1,747.3L586,311.4l0,0L688.6,414l0,0L252.7,849.9L150.1,747.3z M483.5,208.9l76.9,76.9L124.5,721.7l-71.4-71.4l0,0l-5.5-5.5L483.5,208.9z M46.3,930.5V694.7l65.4,65.4c0,0,0,0,0,0c0,0,0,0,0,0l128.2,128.2c0,0,0,0,0,0c0,0,0,0,0,0l65.4,65.4H69.5C56.7,953.7,46.3,943.3,46.3,930.5z M355.3,952.5l-5.6-5.6l0,0l-71.3-71.3l435.9-435.9l76.9,76.9L355.3,952.5z M939.1,368.6L893.7,414L586,106.3l45.4-45.4c9.1-9.1,23.8-9.1,32.8,0l274.9,274.9C948.2,344.8,948.2,359.5,939.1,368.6z" fill="#fd0303"/></g>
</svg>